ply
format ascii 1.0
comment Created by Blender 2.69 (sub 0) - www.blender.org, source file: ''
element vertex 26
property float x
property float y
property float z
property float nx
property float ny
property float nz
property float s
property float t
element face 12
property list uchar uint vertex_indices
end_header
1.000000 1.000000 -1.000000 0.000000 0.000000 -1.000000 0.499999 0.500000
1.000000 -1.000000 -1.000000 0.000000 0.000000 -1.000000 0.499999 0.749956
-1.000000 -1.000000 -1.000000 0.000000 0.000000 -1.000000 0.250043 0.749957
1.000000 0.999999 1.000000 -0.000000 -0.000000 1.000000 0.499998 0.250043
-1.000000 1.000000 1.000000 -0.000000 -0.000000 1.000000 0.250041 0.250044
0.999999 -1.000001 1.000000 -0.000000 -0.000000 1.000000 0.499996 0.000087
1.000000 1.000000 -1.000000 1.000000 0.000000 -0.000000 0.749956 0.749956
1.000000 0.999999 1.000000 1.000000 0.000000 -0.000000 0.749956 0.999913
1.000000 -1.000000 -1.000000 1.000000 0.000000 -0.000000 0.499999 0.749956
1.000000 -1.000000 -1.000000 -0.000000 -1.000000 -0.000000 0.499999 0.749956
0.999999 -1.000001 1.000000 -0.000000 -1.000000 -0.000000 0.500000 0.999913
-1.000000 -1.000000 -1.000000 -0.000000 -1.000000 -0.000000 0.250043 0.749957
-1.000000 -1.000000 -1.000000 -1.000000 0.000000 -0.000000 0.250043 0.749957
-1.000000 -1.000000 1.000000 -1.000000 0.000000 -0.000000 0.250043 0.999913
-1.000000 1.000000 1.000000 -1.000000 0.000000 -0.000000 0.000087 0.999913
1.000000 0.999999 1.000000 0.000000 1.000000 0.000000 0.499998 0.250043
1.000000 1.000000 -1.000000 0.000000 1.000000 0.000000 0.499999 0.500000
-1.000000 1.000000 1.000000 0.000000 1.000000 0.000000 0.250041 0.250044
-1.000000 1.000000 -1.000000 0.000000 0.000000 -1.000000 0.250042 0.500001
1.000000 0.999999 1.000000 1.000000 -0.000001 0.000000 0.749956 0.999913
0.999999 -1.000001 1.000000 1.000000 -0.000001 0.000000 0.500000 0.999913
1.000000 -1.000000 -1.000000 1.000000 -0.000001 0.000000 0.499999 0.749956
-1.000000 1.000000 -1.000000 0.000000 1.000000 0.000000 0.250042 0.500001
-1.000000 -1.000000 1.000000 0.000000 -0.000000 1.000000 0.250040 0.000088
-1.000000 1.000000 -1.000000 -1.000000 0.000000 -0.000000 0.000087 0.749957
-1.000000 -1.000000 1.000000 -0.000000 -1.000000 0.000000 0.250043 0.999913
3 0 1 2
3 3 4 5
3 6 7 8
3 9 10 11
3 12 13 14
3 15 16 17
3 18 0 2
3 19 20 21
3 16 22 17
3 4 23 5
3 24 12 14
3 10 25 11
